<?xml version="1.0" encoding="UTF-8"?>
<svg id="VECTOR" xmlns="http://www.w3.org/2000/svg" viewBox="0 0 311.06 48.22">
  <defs>
    <style>
      .cls-1 {
        fill: #fff;
        stroke-width: 0px;
      }
    </style>
  </defs>
  <path class="cls-1" d="m247.32,3.37c-4.36-2.18-8.98-3.37-13.94-3.37-14.86,0-26.03,13.28-26.03,27.74,0,11.36,7.33,20.48,18.3,20.48,8.32,0,14.14-4.36,18.36-11.63.33-.66.2-1.25-.33-1.52-.46-.26-1.06-.2-1.52.4-4.69,6.08-8.59,8.46-14.14,8.46-7.79,0-11.82-6.8-11.82-15.46,0-11.89,6.27-26.03,17.37-26.03,5.35,0,9.31,3.3,10.04,11.96.07.73.46,1.12.99,1.12.59,0,.99-.33,1.12-.99l2.25-9.78c.13-.59-.07-1.06-.66-1.39Z"/>
  <path class="cls-1" d="m264.14,14.33c-8.65,0-17.64,8.92-17.64,19.29,0,8.52,5.68,14.47,11.96,14.47,8.59,0,17.7-8.92,17.7-19.29,0-8.59-5.81-14.47-12.02-14.47Zm-5.55,31.64c-2.91,0-4.16-3.63-4.16-9.12,0-9.12,4.03-20.34,9.58-20.34,2.97,0,4.23,3.17,4.23,8.92,0,9.25-4.1,20.54-9.64,20.54Z"/>
  <path class="cls-1" d="m310.79,40.03c-.4-.2-.79-.07-1.32.46-1.72,2.05-3.04,3.37-4.16,3.37-1.32,0-1.12-1.45-.53-4.03l3.96-15.46c1.52-5.88.73-10.04-4.43-10.04-4.56,0-10.37,4.36-14.93,13.74h-.26l2.84-12.48c.2-.73-.33-1.12-1.12-.92l-9.91,2.51c-.53.13-.92.46-.92.86s.26.66.92.92c2.18.79,2.64,1.65,2.05,4.23l-5.28,22.85c-.2.79.2,1.19.92,1.19h5.15c.66,0,1.06-.33,1.19-.92l.73-3.17c3.9-17.31,11.63-24.11,14.66-24.11,2.05,0,2.11,1.45,1.19,4.96l-3.9,15.06c-1.32,5.28-.2,8.79,3.96,8.85,2.71,0,5.35-1.12,8.59-5.55.86-1.26,1.12-1.98.59-2.31Z"/>
  <path class="cls-1" d="m87.89,23.48c3.48-1.94,5.42-5.56,5.42-9.51,0-7.43-5.62-12.65-13.72-12.65h-17.74v46.19h19.48c8.37,0,13.86-5.42,13.86-13.19,0-5.15-2.68-9.1-7.3-10.84Zm-18.34-15.4h9.24c4.22,0,6.9,2.54,6.9,6.43s-2.68,6.36-6.9,6.36h-9.24v-12.79Zm10.17,32.67h-10.17v-13.39h10.17c4.69,0,7.76,2.61,7.76,6.69s-3.08,6.69-7.76,6.69Z"/>
  <path class="cls-1" d="m126.45,18.73c-2.48-3.21-6.43-5.09-11.11-5.09-9.5,0-16.73,7.56-16.73,17.27s7.23,17.27,16.73,17.27c4.69,0,8.7-1.87,11.11-5.09v4.42h7.1V14.31h-7.1v4.42Zm-10.31,22.42c-5.82,0-10.11-4.28-10.11-10.24s4.28-10.31,10.11-10.31,10.04,4.35,10.04,10.31-4.22,10.24-10.04,10.24Z"/>
  <path class="cls-1" d="m154.56,20.6c4.08,0,7.5,2.54,8.84,6.02l6.96-2.68c-2.08-5.29-7.63-10.31-15.8-10.31-9.91,0-17.47,7.56-17.47,17.27s7.56,17.27,17.47,17.27c8.17,0,13.72-4.95,15.8-10.31l-6.96-2.61c-1.34,3.48-4.69,5.96-8.84,5.96-5.76,0-10.04-4.48-10.04-10.31s4.22-10.31,10.04-10.31Z"/>
  <polygon class="cls-1" points="204.84 14.31 196.07 14.31 183.08 29.04 183.08 1.33 175.65 1.33 175.65 47.51 183.08 47.51 183.08 31.72 196.4 47.51 205.44 47.51 191.05 30.18 204.84 14.31"/>
  <path class="cls-1" d="m46.68,1.35H4.06C1.82,1.35,0,3.16,0,5.39v38.08c0,2.23,1.82,4.05,4.06,4.05h42.63c2.24,0,4.06-1.81,4.06-4.05V5.39c0-2.23-1.82-4.05-4.06-4.05Zm-19.04,37.07h-8.37c-.27,0-.52-.11-.71-.29l-13.39-13.39c-.17-.17-.17-.43,0-.6l13.39-13.39c.19-.19.44-.29.71-.29h8.37c.23,0,.34.28.18.44l-13.25,13.25c-.17.17-.17.43,0,.6l13.25,13.25c.16.16.05.44-.18.44Zm4.47-13.69l13.25,13.25c.16.16.05.44-.18.44h-8.37c-.27,0-.52-.11-.71-.29l-13.39-13.39c-.17-.17-.17-.43,0-.6l13.39-13.39c.19-.19.44-.29.71-.29h8.37c.23,0,.34.28.18.44l-13.25,13.25c-.17.17-.17.43,0,.6Z"/>
</svg>