<?xml version="1.0" encoding="UTF-8"?>
<svg id="VECTOR" xmlns="http://www.w3.org/2000/svg" viewBox="0 0 312 50">
  <defs>
    <style>
      .cls-1, .cls-2 {
        stroke-width: 0px;
      }

      .cls-2 {
        fill: #231f20;
      }
    </style>
  </defs>
  <path class="cls-2" d="m207.82,28.63c0-14.47,11.16-27.74,26.03-27.74,4.95,0,9.58,1.19,13.94,3.37.59.33.79.79.66,1.39l-2.25,9.78c-.13.66-.53.99-1.12.99-.53,0-.92-.4-.99-1.12-.73-8.65-4.69-11.96-10.04-11.96-11.1,0-17.37,14.14-17.37,26.03,0,8.65,4.03,15.46,11.82,15.46,5.55,0,9.45-2.38,14.14-8.46.46-.59,1.06-.66,1.52-.4.53.26.66.86.33,1.52-4.23,7.27-10.04,11.63-18.36,11.63-10.96,0-18.3-9.12-18.3-20.48Z"/>
  <path class="cls-2" d="m246.97,34.51c0-10.37,8.98-19.29,17.64-19.29,6.21,0,12.02,5.88,12.02,14.47,0,10.37-9.12,19.29-17.7,19.29-6.28,0-11.96-5.94-11.96-14.47Zm12.09,12.35c5.55,0,9.64-11.3,9.64-20.54,0-5.75-1.25-8.92-4.23-8.92-5.55,0-9.58,11.23-9.58,20.34,0,5.48,1.25,9.12,4.16,9.12Z"/>
  <path class="cls-2" d="m298.12,39.93l3.9-15.06c.92-3.5.86-4.96-1.19-4.96-3.04,0-10.77,6.8-14.66,24.11l-.73,3.17c-.13.59-.53.92-1.19.92h-5.15c-.73,0-1.12-.4-.92-1.19l5.28-22.85c.59-2.58.13-3.44-2.05-4.23-.66-.26-.92-.53-.92-.92s.4-.73.92-.86l9.91-2.51c.79-.2,1.32.2,1.12.92l-2.84,12.48h.26c4.56-9.38,10.37-13.74,14.93-13.74,5.15,0,5.94,4.16,4.43,10.04l-3.96,15.46c-.59,2.58-.79,4.03.53,4.03,1.12,0,2.44-1.32,4.16-3.37.53-.53.92-.66,1.32-.46.53.33.26,1.06-.59,2.31-3.24,4.43-5.88,5.55-8.59,5.55-4.16-.07-5.28-3.57-3.96-8.85Z"/>
  <g>
    <g>
      <path class="cls-1" d="m62.32,2.22h17.74c8.1,0,13.72,5.22,13.72,12.65,0,3.95-1.94,7.56-5.42,9.51,4.62,1.74,7.3,5.69,7.3,10.84,0,7.76-5.49,13.19-13.86,13.19h-19.48V2.22Zm16.94,19.55c4.22,0,6.9-2.54,6.9-6.36s-2.68-6.43-6.9-6.43h-9.24v12.79h9.24Zm.94,19.88c4.69,0,7.76-2.61,7.76-6.69s-3.08-6.69-7.76-6.69h-10.17v13.39h10.17Z"/>
      <path class="cls-1" d="m99.07,31.8c0-9.71,7.23-17.27,16.73-17.27,4.69,0,8.64,1.87,11.11,5.09v-4.42h7.1v33.2h-7.1v-4.42c-2.41,3.21-6.43,5.09-11.11,5.09-9.5,0-16.73-7.56-16.73-17.27Zm17.54,10.24c5.82,0,10.04-4.28,10.04-10.24s-4.22-10.31-10.04-10.31-10.11,4.35-10.11,10.31,4.28,10.24,10.11,10.24Z"/>
      <path class="cls-1" d="m137.56,31.8c0-9.71,7.56-17.27,17.47-17.27,8.17,0,13.72,5.02,15.8,10.31l-6.96,2.68c-1.34-3.48-4.75-6.02-8.84-6.02-5.82,0-10.04,4.49-10.04,10.31s4.28,10.31,10.04,10.31c4.15,0,7.5-2.48,8.84-5.96l6.96,2.61c-2.08,5.36-7.63,10.31-15.8,10.31-9.91,0-17.47-7.56-17.47-17.27Z"/>
      <path class="cls-1" d="m183.55,32.61v15.8h-7.43V2.22h7.43v27.71l12.99-14.73h8.77l-13.79,15.86,14.39,17.34h-9.04l-13.32-15.8Z"/>
    </g>
    <path class="cls-1" d="m47.15,2.24H4.52C2.28,2.24.47,4.05.47,6.28v38.08c0,2.23,1.82,4.05,4.06,4.05h42.63c2.24,0,4.06-1.81,4.06-4.05V6.28c0-2.23-1.82-4.05-4.06-4.05Zm-19.04,37.07h-8.37c-.27,0-.52-.11-.71-.29l-13.39-13.39c-.17-.17-.17-.43,0-.6l13.39-13.39c.19-.19.44-.29.71-.29h8.37c.23,0,.34.28.18.44l-13.25,13.25c-.17.17-.17.43,0,.6l13.25,13.25c.16.16.05.44-.18.44Zm4.47-13.69l13.25,13.25c.16.16.05.44-.18.44h-8.37c-.27,0-.52-.11-.71-.29l-13.39-13.39c-.17-.17-.17-.43,0-.6l13.39-13.39c.19-.19.44-.29.71-.29h8.37c.23,0,.34.28.18.44l-13.25,13.25c-.17.17-.17.43,0,.6Z"/>
  </g>
</svg>